<mxfile host="app.diagrams.net" modified="2023-10-26T14:22:13.074Z" agent="Mozilla/5.0 (Windows NT 10.0; Win64; x64) AppleWebKit/537.36 (KHTML, like Gecko) Chrome/118.0.0.0 Safari/537.36" version="22.0.0" etag="T_-Sd3FHdaJWDd-bi6QJ" type="github">
  <diagram name="Page-1" id="09Z1h9_U-hZEfZ2RakFu">
    <mxGraphModel>
      <root>
        <mxCell id="0" />
        <mxCell id="1" parent="0" />
      </root>
    </mxGraphModel>
  </diagram>
</mxfile>
